<mxfile host="app.diagrams.net" modified="2023-10-30T19:16:53.984Z" agent="Mozilla/5.0 (X11; Linux x86_64; rv:109.0) Gecko/20100101 Firefox/119.0" etag="jfgqgJnje2Bp9rQRf04e" version="22.0.8" type="device">
  <diagram name="Page-1" id="goIMu1VnmW6Cp862Wt0S">
    <mxGraphModel dx="959" dy="528" grid="1" gridSize="10" guides="1" tooltips="1" connect="1" arrows="1" fold="1" page="1" pageScale="1" pageWidth="850" pageHeight="1400" math="0" shadow="1">
      <root>
        <mxCell id="0" />
        <mxCell id="1" parent="0" />
        <mxCell id="HOOUHrCWKxnyCwUtoLPd-1" value="" style="rounded=0;whiteSpace=wrap;html=1;fillColor=none;dashed=1;dashPattern=1 1;" vertex="1" parent="1">
          <mxGeometry x="180" y="210" width="590" height="240" as="geometry" />
        </mxCell>
        <mxCell id="_8MpBZ-zCHoNzjX5Ot_M-1" value="" style="rounded=0;whiteSpace=wrap;html=1;fillColor=#DBDBDB;fontColor=#333333;strokeColor=#666666;" parent="1" vertex="1">
          <mxGeometry x="280" y="240" width="390" height="180" as="geometry" />
        </mxCell>
        <mxCell id="_8MpBZ-zCHoNzjX5Ot_M-10" style="edgeStyle=orthogonalEdgeStyle;rounded=0;orthogonalLoop=1;jettySize=auto;html=1;exitX=1;exitY=0.5;exitDx=0;exitDy=0;" parent="1" source="_8MpBZ-zCHoNzjX5Ot_M-2" edge="1">
          <mxGeometry relative="1" as="geometry">
            <mxPoint x="710" y="330.20000000000005" as="targetPoint" />
          </mxGeometry>
        </mxCell>
        <mxCell id="_8MpBZ-zCHoNzjX5Ot_M-2" value="Defuzzifier" style="rounded=0;whiteSpace=wrap;html=1;fillColor=#d5e8d4;strokeColor=#82b366;" parent="1" vertex="1">
          <mxGeometry x="570" y="315" width="80" height="30" as="geometry" />
        </mxCell>
        <mxCell id="_8MpBZ-zCHoNzjX5Ot_M-7" style="edgeStyle=orthogonalEdgeStyle;rounded=0;orthogonalLoop=1;jettySize=auto;html=1;exitX=0.75;exitY=1;exitDx=0;exitDy=0;entryX=0.5;entryY=1;entryDx=0;entryDy=0;" parent="1" source="_8MpBZ-zCHoNzjX5Ot_M-3" target="_8MpBZ-zCHoNzjX5Ot_M-2" edge="1">
          <mxGeometry relative="1" as="geometry" />
        </mxCell>
        <mxCell id="_8MpBZ-zCHoNzjX5Ot_M-3" value="Inference" style="rounded=0;whiteSpace=wrap;html=1;fillColor=#dae8fc;strokeColor=#6c8ebf;" parent="1" vertex="1">
          <mxGeometry x="435" y="315" width="80" height="30" as="geometry" />
        </mxCell>
        <mxCell id="_8MpBZ-zCHoNzjX5Ot_M-6" style="edgeStyle=orthogonalEdgeStyle;rounded=0;orthogonalLoop=1;jettySize=auto;html=1;exitX=0.5;exitY=1;exitDx=0;exitDy=0;entryX=0.25;entryY=1;entryDx=0;entryDy=0;" parent="1" source="_8MpBZ-zCHoNzjX5Ot_M-4" target="_8MpBZ-zCHoNzjX5Ot_M-3" edge="1">
          <mxGeometry relative="1" as="geometry" />
        </mxCell>
        <mxCell id="_8MpBZ-zCHoNzjX5Ot_M-4" value="Fuzzifier" style="rounded=0;whiteSpace=wrap;html=1;fillColor=#ffe6cc;strokeColor=#d79b00;" parent="1" vertex="1">
          <mxGeometry x="300" y="315" width="80" height="30" as="geometry" />
        </mxCell>
        <mxCell id="_8MpBZ-zCHoNzjX5Ot_M-12" style="edgeStyle=orthogonalEdgeStyle;rounded=0;orthogonalLoop=1;jettySize=auto;html=1;exitX=0.5;exitY=1;exitDx=0;exitDy=0;entryX=0.5;entryY=0;entryDx=0;entryDy=0;" parent="1" source="_8MpBZ-zCHoNzjX5Ot_M-5" target="_8MpBZ-zCHoNzjX5Ot_M-3" edge="1">
          <mxGeometry relative="1" as="geometry" />
        </mxCell>
        <mxCell id="_8MpBZ-zCHoNzjX5Ot_M-5" value="RULES" style="rounded=0;whiteSpace=wrap;html=1;fillColor=#f8cecc;strokeColor=#b85450;" parent="1" vertex="1">
          <mxGeometry x="446" y="264" width="58" height="22" as="geometry" />
        </mxCell>
        <mxCell id="_8MpBZ-zCHoNzjX5Ot_M-8" value="fuzzy input set" style="text;html=1;strokeColor=none;fillColor=none;align=center;verticalAlign=middle;whiteSpace=wrap;rounded=0;" parent="1" vertex="1">
          <mxGeometry x="350" y="360" width="90" height="30" as="geometry" />
        </mxCell>
        <mxCell id="_8MpBZ-zCHoNzjX5Ot_M-9" value="fuzzy output set" style="text;html=1;strokeColor=none;fillColor=none;align=center;verticalAlign=middle;whiteSpace=wrap;rounded=0;" parent="1" vertex="1">
          <mxGeometry x="510" y="360" width="90" height="30" as="geometry" />
        </mxCell>
        <mxCell id="_8MpBZ-zCHoNzjX5Ot_M-11" style="edgeStyle=orthogonalEdgeStyle;rounded=0;orthogonalLoop=1;jettySize=auto;html=1;exitX=1;exitY=0.5;exitDx=0;exitDy=0;" parent="1" edge="1">
          <mxGeometry relative="1" as="geometry">
            <mxPoint x="300" y="329.84000000000003" as="targetPoint" />
            <mxPoint x="240" y="329.64" as="sourcePoint" />
          </mxGeometry>
        </mxCell>
        <mxCell id="_8MpBZ-zCHoNzjX5Ot_M-14" value="crisp inputs" style="text;html=1;strokeColor=none;fillColor=none;align=center;verticalAlign=middle;whiteSpace=wrap;rounded=0;" parent="1" vertex="1">
          <mxGeometry x="190" y="305" width="50" height="50" as="geometry" />
        </mxCell>
        <mxCell id="_8MpBZ-zCHoNzjX5Ot_M-15" value="crisp outputs" style="text;html=1;strokeColor=none;fillColor=none;align=center;verticalAlign=middle;whiteSpace=wrap;rounded=0;" parent="1" vertex="1">
          <mxGeometry x="710" y="305" width="50" height="50" as="geometry" />
        </mxCell>
      </root>
    </mxGraphModel>
  </diagram>
</mxfile>
